<svg width="608" height="113" viewBox="0 0 608 113" fill="none" xmlns="http://www.w3.org/2000/svg">
<path d="M0 0H53.8607C76.8307 0 87.2859 11.2474 87.2859 30.2571C87.2859 39.2866 85.0682 46.2568 80.7909 51.326C90.7711 56.2369 96.474 66.3754 96.474 79.3652C96.474 99.0085 83.8009 110.89 64.9496 110.89H0V0ZM51.6428 44.3558C59.722 44.3558 63.5239 40.2371 63.5239 32.3164C63.5239 24.5542 59.2467 20.5938 51.6428 20.5938H23.762V44.3558H51.6428ZM60.8309 88.7117C67.8011 88.7117 72.7118 84.1177 72.7118 76.8306C72.7118 69.8604 68.1178 64.9496 60.8309 64.9496H23.762V88.7117H60.8309Z" fill="#EFECD9"/>
<path d="M125.509 23.7617V110.889H103.331V23.7617H125.509Z" fill="#EFECD9"/>
<path d="M125.509 0H103.331V14.2572H125.509V0Z" fill="#BE2845"/>
<path d="M143.818 79.9988V42.7716H132.413V23.762H143.818V0H165.996V23.762H199.579V42.7716H165.996V79.3652C165.996 87.9196 171.223 90.2957 177.243 90.2957H199.579V110.889H172.333C158.234 110.889 143.818 104.711 143.818 79.9988Z" fill="#EFECD9"/>
<path d="M249.885 43.5617C233.093 43.5617 223.272 51.7992 223.272 67.3237C223.272 82.2147 232.618 91.0858 249.885 91.0858C262.875 91.0858 271.746 86.175 275.073 76.6701H298.043C294.399 100.115 276.974 112.472 249.885 112.472C218.202 112.472 201.094 95.5214 201.094 67.3237C201.094 37.8588 219.311 22.1758 249.885 22.1758C277.766 22.1758 294.399 35.3242 297.884 57.6604H274.914C271.588 48.631 263.033 43.5617 249.885 43.5617Z" fill="#EFECD9"/>
<path d="M301.95 67.3237C301.95 37.8588 320.167 22.1758 350.741 22.1758C382.424 22.1758 399.533 39.1261 399.533 67.3237C399.533 96.7887 381.315 112.472 350.741 112.472C319.059 112.472 301.95 95.5214 301.95 67.3237ZM350.741 91.0858C367.533 91.0858 377.355 82.8483 377.355 67.3237C377.355 52.4329 368.008 43.5617 350.741 43.5617C333.95 43.5617 324.128 51.7992 324.128 67.3237C324.128 82.2147 333.474 91.0858 350.741 91.0858Z" fill="#EFECD9"/>
<path d="M405.591 67.3257C405.591 37.8608 420.64 22.1778 451.214 22.1778C466.897 22.1778 475.926 26.2966 480.996 33.9005V0H503.174V110.889H480.996V100.593C475.768 108.355 466.738 112.474 451.214 112.474C419.531 112.474 405.591 95.5234 405.591 67.3257ZM454.382 91.0878C471.174 91.0878 480.996 82.8503 480.996 67.3257C480.996 52.4349 471.649 43.5638 454.382 43.5638C437.59 43.5638 427.769 51.8012 427.769 67.3257C427.769 82.2167 437.115 91.0878 454.382 91.0878Z" fill="#EFECD9"/>
<path d="M510.159 67.3237C510.159 37.8588 528.377 22.1758 558.951 22.1758C590.633 22.1758 607.742 39.1261 607.742 67.3237V70.6505H532.495C533.763 83.482 542.951 91.0859 558.951 91.0859C570.515 91.0859 578.752 87.2839 582.712 79.6801H606.633C601.881 101.066 584.772 112.472 558.951 112.472C527.268 112.472 510.159 95.5214 510.159 67.3237ZM582.554 54.4923C578.435 47.522 570.515 43.5617 558.951 43.5617C547.703 43.5617 539.466 47.3637 535.347 54.4923H582.554Z" fill="#EFECD9"/>
</svg>
